<svg width="20" height="20" viewBox="0 0 20 20" fill="none" xmlns="http://www.w3.org/2000/svg">
<path d="M17.4998 5.83332H2.49984C2.03984 5.83332 1.6665 5.45999 1.6665 4.99999C1.6665 4.53999 2.03984 4.16666 2.49984 4.16666H17.4998C17.9607 4.16666 18.3332 4.53999 18.3332 4.99999C18.3332 5.45999 17.9607 5.83332 17.4998 5.83332Z" fill="#576175"/>
<path d="M14.1668 19.1667H5.8335C4.45516 19.1667 3.3335 18.045 3.3335 16.6667V5.00001C3.3335 4.54001 3.70683 4.16668 4.16683 4.16668C4.62683 4.16668 5.00016 4.54001 5.00016 5.00001V16.6667C5.00016 17.1267 5.37433 17.5 5.8335 17.5H14.1668C14.6268 17.5 15.0002 17.1267 15.0002 16.6667V5.00001C15.0002 4.54001 15.3727 4.16668 15.8335 4.16668C16.2943 4.16668 16.6668 4.54001 16.6668 5.00001V16.6667C16.6668 18.045 15.5452 19.1667 14.1668 19.1667ZM13.3335 5.83334C12.8727 5.83334 12.5002 5.46001 12.5002 5.00001V3.33334C12.5002 2.87418 12.1268 2.50001 11.6668 2.50001H8.3335C7.87433 2.50001 7.50016 2.87418 7.50016 3.33334V5.00001C7.50016 5.46001 7.12683 5.83334 6.66683 5.83334C6.20683 5.83334 5.8335 5.46001 5.8335 5.00001V3.33334C5.8335 1.95501 6.95516 0.833344 8.3335 0.833344H11.6668C13.0452 0.833344 14.1668 1.95501 14.1668 3.33334V5.00001C14.1668 5.46001 13.7943 5.83334 13.3335 5.83334Z" fill="#576175"/>
<path d="M8.33333 15C7.87333 15 7.5 14.6275 7.5 14.1667V9.16668C7.5 8.70668 7.87333 8.33334 8.33333 8.33334C8.79333 8.33334 9.16667 8.70668 9.16667 9.16668V14.1667C9.16667 14.6275 8.79333 15 8.33333 15Z" fill="#576175"/>
<path d="M11.6668 15C11.206 15 10.8335 14.6275 10.8335 14.1667V9.16668C10.8335 8.70668 11.206 8.33334 11.6668 8.33334C12.1277 8.33334 12.5002 8.70668 12.5002 9.16668V14.1667C12.5002 14.6275 12.1277 15 11.6668 15Z" fill="#576175"/>
</svg>
